<svg width="86" height="75" viewBox="0 0 86 75" fill="none" xmlns="http://www.w3.org/2000/svg">
<g clip-path="url(#clip0_17_21)">
<path d="M37.9547 54.8783C37.4272 54.8783 36.9991 54.4454 36.9991 53.9121V41.4097C36.9991 40.8763 37.4272 40.4435 37.9547 40.4435C38.4822 40.4435 38.9103 40.8763 38.9103 41.4097V53.9121C38.9103 54.4473 38.4822 54.8783 37.9547 54.8783Z" fill="#27374D"/>
<path d="M47.2217 54.8783C46.6942 54.8783 46.2661 54.4454 46.2661 53.9121V43.6725C46.2661 43.1391 46.6942 42.7063 47.2217 42.7063C47.7491 42.7063 48.1772 43.1391 48.1772 43.6725V53.9121C48.1772 54.4474 47.751 54.8783 47.2217 54.8783Z" fill="#27374D"/>
<path d="M66.7322 61.8908H25.6452C25.1177 61.8908 24.6897 61.458 24.6897 60.9247C24.6897 60.3913 25.1177 59.9585 25.6452 59.9585H66.7322C67.2597 59.9585 67.6877 60.3913 67.6877 60.9247C67.6877 61.458 67.2597 61.8908 66.7322 61.8908ZM13.7084 53.7131C13.3281 53.7131 12.9707 53.4831 12.8197 53.1044L10.4022 46.9846C10.3162 46.7662 10.3124 46.5247 10.3888 46.3044L13.2115 38.2387C13.3071 37.9643 13.5211 37.7478 13.7944 37.6493L30.7326 31.601C30.9065 31.5392 31.0957 31.5295 31.2753 31.572L73.3083 41.8367C73.6925 41.9314 73.9791 42.2541 74.0307 42.6503L75.2519 52.0686C75.3207 52.5981 74.9519 53.0831 74.4282 53.1527C73.9065 53.2203 73.4249 52.8493 73.3561 52.3198L72.2209 43.5604L31.1014 33.5179L14.8608 39.3189L12.3095 46.6058L14.5933 52.3875C14.7882 52.8841 14.5493 53.4445 14.0601 53.6435C13.9473 53.6918 13.8269 53.7131 13.7084 53.7131Z" fill="#27374D"/>
<path d="M61.4174 54.8782H30.9619C30.5988 54.8782 30.2663 54.6695 30.1058 54.341C27.9462 49.9333 23.7915 46.8975 18.9927 46.2173C18.7079 46.1768 18.4575 46.0106 18.3085 45.7613C18.1594 45.514 18.1288 45.2106 18.2244 44.9381L18.6467 43.7323C18.7423 43.4579 18.9563 43.2415 19.2296 43.1429L31.1072 38.9014C31.2811 38.8396 31.4703 38.8299 31.6499 38.8724L66.2774 47.3285C66.6367 47.4154 66.9138 47.7053 66.9883 48.0724C67.0628 48.4396 66.9233 48.8164 66.6271 49.0405C64.7963 50.4318 63.2922 52.2637 62.2755 54.3371C62.1131 54.6714 61.7805 54.8782 61.4174 54.8782ZM31.5429 52.9458H60.8364C61.6659 51.398 62.7399 49.9816 64.0012 48.7642L31.476 40.8222L20.8598 44.6135C25.4044 45.7265 29.2935 48.7449 31.5429 52.9458Z" fill="#27374D"/>
<path d="M16.9382 70.6946C11.61 70.6946 7.27563 66.312 7.27563 60.9246C7.27563 55.5371 11.61 51.1545 16.9382 51.1545C22.2664 51.1545 26.6008 55.5371 26.6008 60.9246C26.6008 66.312 22.2664 70.6946 16.9382 70.6946ZM16.9382 53.0869C12.6631 53.0869 9.18675 56.6038 9.18675 60.9246C9.18675 65.2454 12.665 68.7623 16.9382 68.7623C21.2115 68.7623 24.6897 65.2454 24.6897 60.9246C24.6897 56.6038 21.2115 53.0869 16.9382 53.0869Z" fill="#27374D"/>
<path d="M75.4392 70.6946C70.111 70.6946 65.7766 66.312 65.7766 60.9246C65.7766 55.5371 70.111 51.1545 75.4392 51.1545C80.7674 51.1545 85.1018 55.5371 85.1018 60.9246C85.1018 66.312 80.7674 70.6946 75.4392 70.6946ZM75.4392 53.0869C71.164 53.0869 67.6877 56.6038 67.6877 60.9246C67.6877 65.2454 71.1659 68.7623 75.4392 68.7623C79.7124 68.7623 83.1907 65.2454 83.1907 60.9246C83.1907 56.6038 79.7124 53.0869 75.4392 53.0869Z" fill="#27374D"/>
<path d="M75.4392 64.8569C73.2949 64.8569 71.5501 63.0927 71.5501 60.9246C71.5501 58.7564 73.2949 56.9922 75.4392 56.9922C77.5835 56.9922 79.3283 58.7564 79.3283 60.9246C79.3283 63.0927 77.5835 64.8569 75.4392 64.8569ZM75.4392 58.9246C74.348 58.9246 73.4612 59.8212 73.4612 60.9246C73.4612 62.0279 74.348 62.9246 75.4392 62.9246C76.5305 62.9246 77.4172 62.0279 77.4172 60.9246C77.4172 59.8212 76.5305 58.9246 75.4392 58.9246Z" fill="#27374D"/>
<path d="M16.9382 64.8569C14.7939 64.8569 13.0491 63.0927 13.0491 60.9246C13.0491 58.7564 14.7939 56.9922 16.9382 56.9922C19.0824 56.9922 20.8273 58.7564 20.8273 60.9246C20.8273 63.0927 19.0824 64.8569 16.9382 64.8569ZM16.9382 58.9246C15.8469 58.9246 14.9602 59.8212 14.9602 60.9246C14.9602 62.0279 15.8469 62.9246 16.9382 62.9246C18.0294 62.9246 18.9162 62.0279 18.9162 60.9246C18.9162 59.8212 18.0294 58.9246 16.9382 58.9246Z" fill="#27374D"/>
<path d="M63.1699 41.3208C62.6424 41.3208 62.2143 40.8879 62.2143 40.3546V27.2744H37.0527V33.742C37.0527 34.2754 36.6246 34.7082 36.0971 34.7082C35.5696 34.7082 35.1415 34.2754 35.1415 33.742V26.3082C35.1415 25.7749 35.5696 25.342 36.0971 25.342H63.1699C63.6974 25.342 64.1255 25.7749 64.1255 26.3082V40.3546C64.1255 40.8899 63.6974 41.3208 63.1699 41.3208Z" fill="#27374D"/>
<path d="M58.5355 27.2744C58.008 27.2744 57.5799 26.8415 57.5799 26.3082V20.2618H41.6871V26.3082C41.6871 26.8415 41.259 27.2744 40.7316 27.2744C40.2041 27.2744 39.776 26.8415 39.776 26.3082V19.2957C39.776 18.7623 40.2041 18.3295 40.7316 18.3295H58.5355C59.0629 18.3295 59.491 18.7623 59.491 19.2957V26.3082C59.491 26.8415 59.0629 27.2744 58.5355 27.2744Z" fill="#27374D"/>
<path d="M19.5736 37.5777C19.1971 37.5777 18.8417 37.3517 18.6888 36.9787L7.97891 10.5845H1.95318C1.42571 10.5845 0.99762 10.1517 0.99762 9.61832V3.14489C0.99762 2.61156 1.42571 2.17871 1.95318 2.17871H12.8905C13.2784 2.17871 13.6282 2.41639 13.7753 2.77774L26.4804 34.0918C26.681 34.5864 26.4479 35.1507 25.9586 35.3517C25.4694 35.5546 24.9114 35.3188 24.7126 34.8241L12.2502 4.11301H2.90873V8.65407H8.61913C9.00709 8.65407 9.35682 8.89175 9.50397 9.25311L20.4566 36.2463C20.6572 36.741 20.4241 37.3053 19.9348 37.5062C19.8163 37.5546 19.694 37.5777 19.5736 37.5777Z" fill="#27374D"/>
</g>
<defs>
<clipPath id="clip0_17_21">
<rect width="86" height="74.7826" fill="white"/>
</clipPath>
</defs>
</svg>
