<svg width="60" height="60" viewBox="0 0 60 60" fill="none" xmlns="http://www.w3.org/2000/svg">
<g id="noun-email-5947797 1">
<path id="Vector" d="M30.5 39.657L1.58155 10.7385C2.01571 9.95294 2.65231 9.29794 3.42522 8.84159C4.19814 8.38524 5.07915 8.14419 5.97673 8.14349H55.0226C55.9203 8.14408 56.8015 8.38507 57.5745 8.84143C58.3475 9.29778 58.9842 9.95284 59.4184 10.7385L30.5 39.657ZM1.02493 12.3271C0.977551 12.6048 0.953533 12.886 0.953128 13.1677V47.8323C0.952152 48.763 1.21142 49.6755 1.70165 50.4667L20.4337 31.734L1.02493 12.3271ZM31.0357 41.264C30.9654 41.3345 30.8819 41.3904 30.79 41.4286C30.6981 41.4668 30.5995 41.4864 30.5 41.4864C30.4005 41.4864 30.3019 41.4668 30.21 41.4286C30.1181 41.3904 30.0346 41.3345 29.9643 41.264L21.5057 32.8053L2.68654 51.6238C3.59807 52.4191 4.767 52.8571 5.97673 52.8565H55.0226C56.2326 52.8572 57.4017 52.4192 58.3135 51.6238L39.4943 32.8053L31.0357 41.264ZM59.9751 12.3271L40.5656 31.734L59.2984 50.4667C59.7886 49.6755 60.0479 48.763 60.0469 47.8323V13.1677C60.0465 12.886 60.0225 12.6048 59.9751 12.3271Z" fill="#27374D"/>
</g>
</svg>
