<svg viewBox="0 0 60 60" width="55" height="60px" fill="none" xmlns="http://www.w3.org/2000/svg">
<g id="noun-phone-1147912 1">
<g id="Group">
<g id="Group_2">
<g id="Group_3">
<path id="Vector" d="M54.1796 48.1136L43.3216 42.5201C41.7966 41.7297 39.9056 42.1553 38.8686 43.4929L34.9036 48.6001C30.9996 46.5329 28.0716 44.5264 24.6556 41.1216C20.9956 37.4736 19.0436 34.4945 17.0916 30.7249L22.1546 26.7729C23.4966 25.7393 23.9236 23.8545 23.1306 22.3345L17.5186 11.5729C16.5426 9.68805 14.1026 9.08005 12.3336 10.2352L5.4406 14.8561C3.8546 15.9505 2.93962 17.7744 3.06162 19.6592C3.18362 21.6048 3.4276 24.0977 3.9156 25.8001C5.9286 33.5217 10.7476 41.4865 17.5796 48.2353C24.3506 54.9841 32.3416 59.7872 40.0886 61.8544C41.7966 62.28 44.2976 62.5232 46.3106 62.7056C48.2626 62.8272 50.1536 61.9152 51.1906 60.2736L55.7046 53.2816C56.6806 51.4576 56.0096 49.0864 54.1796 48.1136Z" fill="#28384E"/>
<path id="Vector_2" d="M32.2193 27.5632C33.5613 27.928 34.9033 28.6577 35.9403 29.7521C37.0383 30.8465 37.7703 32.1232 38.1363 33.4608C38.4413 34.5552 39.4783 35.2849 40.6373 35.2241H40.8813C42.4673 35.1633 43.6263 33.6432 43.1993 32.1232C42.5893 29.9344 41.4303 27.8065 39.6613 26.1041C37.8923 24.3409 35.8183 23.1856 33.6223 22.5776C32.0973 22.152 30.5723 23.3073 30.5113 24.8881V25.1312C30.3893 26.2256 31.1213 27.2592 32.2193 27.5632Z" fill="#28384E"/>
<path id="Vector_3" d="M32.9514 18.8081C36.3064 19.4161 39.5394 20.9969 42.1014 23.5505C44.7244 26.1649 46.3104 29.3265 46.8594 32.6705C47.1034 33.8865 48.2014 34.7984 49.4824 34.7376H49.6654C51.1904 34.6768 52.2884 33.2785 51.9834 31.8193C51.1904 27.4417 49.1164 23.2464 45.7614 19.8416C42.3454 16.4368 38.1974 14.3697 33.7444 13.6401C32.2804 13.3969 30.8774 14.4913 30.8164 15.9505V16.1329C30.8164 17.4705 31.7314 18.5649 32.9514 18.8081Z" fill="#28384E"/>
<path id="Vector_4" d="M60.89 31.4545C59.975 24.9489 57.047 18.6865 52.045 13.7009C47.043 8.71525 40.76 5.79685 34.233 4.88485C32.769 4.70245 31.427 5.73607 31.366 7.25607V7.49924C31.305 8.83684 32.281 9.93124 33.562 10.1136C38.991 10.8432 44.176 13.3361 48.324 17.4705C52.472 21.6049 54.912 26.8337 55.705 32.1841C55.888 33.4609 56.986 34.4337 58.328 34.3729H58.572C59.975 34.2513 61.073 32.9137 60.89 31.4545Z" fill="#28384E"/>
</g>
</g>
</g>
</g>
</svg>
