<svg width="87" height="97" viewBox="0 0 87 97" fill="none" xmlns="http://www.w3.org/2000/svg">
<g clip-path="url(#clip0_6_91)">
<path d="M41.5858 18.6589H40.3302H4.69006V75.9331H40.3302H41.5866H81.8682V18.6589H41.5858ZM5.94652 74.5869V20.0051H40.3302V23.631H9.31858V70.9611H40.3302V74.5869H5.94652ZM40.3302 43.7734L21.8032 69.6149H19.3238L40.3302 40.3162V43.7734ZM40.3302 44.5096V69.6158H22.3312L40.3302 44.5096ZM40.3302 39.5809L18.7966 69.6149H10.575V61.7569L36.9426 24.9772H40.3302V39.5809ZM10.575 61.0216V24.9772H36.4155L10.575 61.0216ZM80.6117 74.5869H41.5858V70.9611V69.6149V24.9772V23.631V20.0051H80.6117V74.5869Z" fill="#27374D"/>
<path d="M46.228 70.9611H77.2396V23.631H46.228H44.9716V24.9772V69.6149V70.9611H46.228ZM75.9832 43.9181L57.5603 69.6149H55.0809L75.9832 40.46V43.9181ZM58.0874 69.6149L75.9832 44.6543V69.6149H58.0874ZM72.1725 24.9772L46.228 61.1654V24.9772H72.1725ZM46.228 61.9007L72.7006 24.9772H75.984V39.7247L54.5528 69.6149H46.228V61.9007Z" fill="#27374D"/>
</g>
<defs>
<clipPath id="clip0_6_91">
<rect width="86" height="96.75" fill="white" transform="translate(0.168213)"/>
</clipPath>
</defs>
</svg>
